<svg xmlns="http://www.w3.org/2000/svg" xmlns:xlink="http://www.w3.org/1999/xlink" width="222" height="143" viewBox="0 0 222 143">
    <defs>
        <path id="nizk8g9w9a" d="M0 141.54L221.838 141.54 221.838 0.203 0 0.203z"/>
    </defs>
    <g fill="none" fill-rule="evenodd">
        <g>
            <g>
                <g>
                    <g>
                        <path fill="#30241C" d="M183.989 60.963L184.663 60.963 184.663 59.615 183.989 59.615zM171.862 60.963h1.348v-1.348h-1.348v1.348zm4.043 0h1.347v-1.348h-1.347v1.348zm4.042 0h1.347v-1.348h-1.347v1.348zM167.82 60.963L169.167 60.963 169.167 59.615 167.82 59.615zM167.82 65.45h1.347v-1.496h-1.347v1.495zm0 4.485h1.347V68.44h-1.347v1.495zM167.82 73.6L169.167 73.6 169.167 72.926 167.82 72.926z" transform="translate(-120 -3013) translate(107 882) translate(13 2086) translate(0 45)"/>
                        <path fill="#ED4F3E" d="M35.091 22.358L75.629 22.358 75.629 0.674 35.091 0.674z" transform="translate(-120 -3013) translate(107 882) translate(13 2086) translate(0 45)"/>
                        <path fill="#FFF" d="M52.328 7.463L52.328 15.815 58.981 11.639z" transform="translate(-120 -3013) translate(107 882) translate(13 2086) translate(0 45)"/>
                        <path fill="#64CDF2" d="M159.372 119.512L218.351 119.512 218.351 84.512 159.372 84.512z" transform="translate(-120 -3013) translate(107 882) translate(13 2086) translate(0 45)"/>
                        <path fill="#D8D8D8" d="M159.372 119.512L218.249 119.512 218.249 114.995 159.372 114.995z" transform="translate(-120 -3013) translate(107 882) translate(13 2086) translate(0 45)"/>
                        <path fill="#30241C" d="M162.873 117.896L200.576 117.896 200.576 116.548 162.873 116.548z" transform="translate(-120 -3013) translate(107 882) translate(13 2086) translate(0 45)"/>
                        <path fill="#64CDF2" d="M200.576 117.896L214.984 117.896 214.984 116.548 200.576 116.548z" transform="translate(-120 -3013) translate(107 882) translate(13 2086) translate(0 45)"/>
                        <g transform="translate(-120 -3013) translate(107 882) translate(13 2086) translate(0 45) translate(0 .134)">
                            <path fill="#FFF" d="M197.176 100.25c0 4.593-3.723 8.318-8.315 8.318s-8.315-3.725-8.315-8.319c0-4.594 3.723-8.318 8.315-8.318s8.315 3.724 8.315 8.318"/>
                            <path fill="#3AB1CC" d="M186.976 96.911L186.976 103.588 192.295 100.249z"/>
                            <path fill="#64CDF2" d="M186.4 34.26c-.173-.703-.267-1.438-.267-2.196 0-5.056 4.097-9.155 9.152-9.155 3.9 0 7.228 2.442 8.546 5.88.758-.313 1.587-.488 2.458-.488 3.566 0 6.457 2.892 6.457 6.46 0 .335-.034.661-.082.983.137-.014.277-.022.419-.022 2.232 0 4.042 1.81 4.042 4.044 0 2.116-1.625 3.85-3.695 4.027v.017h-26.005c-2.667 0-4.83-2.162-4.83-4.83 0-2.316 1.631-4.25 3.805-4.72"/>
                            <path fill="#30241C" d="M221.677 73.867L196.456 73.867 196.48 69.21 197.828 69.217 197.811 72.519 220.33 72.519 220.33 49.988 197.807 49.988 197.807 53.294 196.46 53.294 196.46 48.64 221.677 48.64z"/>
                            <mask id="cbg4y8ewkb" fill="#fff">
                                <use xlink:href="#nizk8g9w9a"/>
                            </mask>
                            <path fill="#30241C" d="M185.872 76.5h22.523V53.967h-22.523V76.5zm-1.347 1.347h25.217V52.62h-25.217v25.227z" mask="url(#cbg4y8ewkb)"/>
                            <path fill="#30241C" d="M189.85 68.54h14.566V57.948h-14.565V68.54zm-1.346 1.348h17.26V56.6h-17.26v13.288zM209.068 57.948L217.025 57.948 217.025 56.6 209.068 56.6zM209.068 61.928L217.025 61.928 217.025 60.58 209.068 60.58zM209.068 65.908L217.025 65.908 217.025 64.56 209.068 64.56zM19.595 111.294L20.942 111.294 20.942 100.342 19.595 100.342zM26.209 111.796L25.108 111.018 31.846 101.47 32.947 102.247zM14.328 111.796L7.591 102.247 8.692 101.47 15.429 111.018z" mask="url(#cbg4y8ewkb)"/>
                            <path fill="#BAC4C6" d="M5.446 120.73L35.091 120.73 35.091 109.946 5.446 109.946z" mask="url(#cbg4y8ewkb)"/>
                            <path fill="#FFF" d="M8.141 117.95L32.396 117.95 32.396 112.558 8.141 112.558z" mask="url(#cbg4y8ewkb)"/>
                            <path fill="#30241C" d="M10.919 116.012L13.615 116.012 13.615 114.664 10.919 114.664zM16.226 116.012L18.922 116.012 18.922 114.664 16.226 114.664zM21.616 116.012L24.312 116.012 24.312 114.664 21.616 114.664zM27.006 116.012L29.702 116.012 29.702 114.664 27.006 114.664zM93.062 136.728L94.409 136.728 94.409 129.094 93.062 129.094zM109.877 139.998L111.225 139.998 111.225 132.364 109.877 132.364zM126.693 136.728L128.04 136.728 128.04 129.094 126.693 129.094z" mask="url(#cbg4y8ewkb)"/>
                            <path fill="#30241C" d="M93.736 137.681L90.564 134.508 91.517 133.555 93.736 135.775 95.954 133.555 96.907 134.508zM110.551 140.951L107.38 137.778 108.332 136.825 110.551 139.045 112.77 136.825 113.722 137.778zM127.366 137.681L124.195 134.508 125.148 133.555 127.366 135.775 129.585 133.555 130.538 134.508zM143.93 1.55c-1.857 0-3.369 1.513-3.369 3.37 0 1.86 1.512 3.37 3.37 3.37 1.857 0 3.368-1.51 3.368-3.37 0-1.857-1.511-3.37-3.369-3.37m0 8.089c-2.6 0-4.716-2.116-4.716-4.718S141.329.203 143.93.203c2.6 0 4.716 2.116 4.716 4.718s-2.115 4.718-4.716 4.718" mask="url(#cbg4y8ewkb)"/>
                            <path fill="#30241C" d="M150.347 11.981L146.461 8.093 147.413 7.14 151.3 11.028z" mask="url(#cbg4y8ewkb)"/>
                            <path fill="#BAC4C6" d="M140.22 117.95c0 2.234-1.81 4.044-4.043 4.044H84.972c-2.233 0-4.043-1.81-4.043-4.044V18.198c0-2.233 1.81-4.044 4.043-4.044h51.205c2.232 0 4.042 1.81 4.042 4.044v99.752z" mask="url(#cbg4y8ewkb)"/>
                            <path fill="#FFF" d="M84.298 111.323L136.401 111.323 136.401 17.412 84.298 17.412z" mask="url(#cbg4y8ewkb)"/>
                            <path fill="#30241C" d="M110.528 115.096c-.83 0-1.506.676-1.506 1.506 0 .831.676 1.507 1.506 1.507s1.506-.676 1.506-1.507c0-.83-.675-1.506-1.506-1.506m0 4.36c-1.573 0-2.853-1.28-2.853-2.854s1.28-2.854 2.853-2.854c1.574 0 2.854 1.28 2.854 2.854s-1.28 2.855-2.854 2.855M148.622 41.564c-5.41 0-9.812 4.403-9.812 9.815 0 5.413 4.401 9.816 9.812 9.816 5.41 0 9.811-4.403 9.811-9.816 0-5.412-4.401-9.815-9.811-9.815m0 20.979c-6.154 0-11.16-5.008-11.16-11.164 0-6.155 5.006-11.163 11.16-11.163 6.153 0 11.159 5.008 11.159 11.163 0 6.156-5.006 11.164-11.16 11.164M148.622 85.393c-5.41 0-9.812 4.403-9.812 9.815 0 5.413 4.401 9.815 9.812 9.815 5.41 0 9.811-4.402 9.811-9.815 0-5.412-4.401-9.815-9.811-9.815m0 20.978c-6.154 0-11.16-5.007-11.16-11.163 0-6.155 5.006-11.163 11.16-11.163 6.153 0 11.159 5.008 11.159 11.163 0 6.156-5.006 11.163-11.16 11.163" mask="url(#cbg4y8ewkb)"/>
                            <path fill="#30241C" d="M123.044 66.621L122.345 65.468 138.87 55.446 139.569 56.599zM138.87 91.141L122.345 81.123 123.043 79.97 139.568 89.989z" mask="url(#cbg4y8ewkb)"/>
                            <path fill="#30241C" d="M110.327 59.627c-7.533 0-13.662 6.131-13.662 13.667 0 7.535 6.129 13.666 13.662 13.666 7.532 0 13.66-6.13 13.66-13.666 0-7.536-6.128-13.667-13.66-13.667m0 28.681c-8.276 0-15.01-6.735-15.01-15.014 0-8.28 6.734-15.015 15.01-15.015 8.275 0 15.008 6.736 15.008 15.015s-6.733 15.014-15.008 15.014" mask="url(#cbg4y8ewkb)"/>
                            <path fill="#30241C" d="M109.877 78.858L111.225 78.858 111.225 67.729 109.877 67.729z" mask="url(#cbg4y8ewkb)"/>
                            <path fill="#30241C" d="M104.989 73.968L116.114 73.968 116.114 72.62 104.989 72.62z" mask="url(#cbg4y8ewkb)"/>
                            <path fill="#3AB1CC" d="M75.639 54.492L88.501 39.313 102.112 54.492z" mask="url(#cbg4y8ewkb)"/>
                            <path fill="#64CDF2" d="M56.721 54.492L69.583 28.658 83.193 54.492z" mask="url(#cbg4y8ewkb)"/>
                            <path fill="#30241C" d="M57.394 53.818h43.77v-30.92h-43.77v30.92zm-1.347 1.348h46.465V21.55H56.047v33.616z" mask="url(#cbg4y8ewkb)"/>
                            <path fill="#ED4F3E" d="M89.06 30.312c0 1.49 1.207 2.696 2.695 2.696 1.489 0 2.695-1.207 2.695-2.696 0-1.49-1.206-2.696-2.695-2.696-1.488 0-2.695 1.207-2.695 2.696" mask="url(#cbg4y8ewkb)"/>
                            <path fill="#30241C" d="M79.123 84.467c-5.666 0-10.275 4.61-10.275 10.278s4.61 10.279 10.275 10.279 10.274-4.611 10.274-10.279c0-5.667-4.609-10.278-10.274-10.278m0 21.905c-6.409 0-11.623-5.216-11.623-11.627 0-6.41 5.214-11.626 11.623-11.626 6.408 0 11.622 5.215 11.622 11.626s-5.214 11.627-11.622 11.627" mask="url(#cbg4y8ewkb)"/>
                            <path fill="#ED4F3E" d="M76.544 91.064L76.544 98.772 82.716 94.898z" mask="url(#cbg4y8ewkb)"/>
                            <path fill="#30241C" d="M107.533 23.235L133.107 23.235 133.107 21.887 107.533 21.887zM107.533 28.627L133.107 28.627 133.107 27.279 107.533 27.279zM107.533 25.931L133.107 25.931 133.107 24.583 107.533 24.583zM107.533 31.323L123.82 31.323 123.82 29.975 107.533 29.975zM107.533 36.279L133.107 36.279 133.107 34.931 107.533 34.931zM107.533 41.671L133.107 41.671 133.107 40.323 107.533 40.323zM107.533 38.975L133.107 38.975 133.107 37.627 107.533 37.627zM107.533 44.367L123.82 44.367 123.82 43.019 107.533 43.019zM95.124 104.972h30.923v-3.539H95.124v3.539zm-1.347 1.348h33.618v-6.235H93.777v6.235z" mask="url(#cbg4y8ewkb)"/>
                            <path fill="#BAC4C6" d="M150.43 46.504c0 1-.812 1.812-1.812 1.812s-1.812-.811-1.812-1.812.811-1.812 1.812-1.812c1 0 1.811.81 1.811 1.812M144.535 58.067L148.618 49.664 152.701 58.067z" mask="url(#cbg4y8ewkb)"/>
                            <path fill="#ED4F3E" d="M149.939 89.616c0 .73-.592 1.32-1.321 1.32-.73 0-1.321-.59-1.321-1.32 0-.73.591-1.322 1.32-1.322.73 0 1.322.592 1.322 1.322M145.641 98.045L148.618 91.919 151.594 98.045z" mask="url(#cbg4y8ewkb)"/>
                            <path fill="#64CDF2" d="M146.676 92.879c0 .73-.591 1.32-1.32 1.32-.73 0-1.321-.59-1.321-1.32 0-.73.591-1.321 1.32-1.321.73 0 1.321.591 1.321 1.32M142.379 101.309L145.356 95.183 148.332 101.309z" mask="url(#cbg4y8ewkb)"/>
                            <path fill="#BAC4C6" d="M153.363 92.879c0 .73-.592 1.32-1.321 1.32-.73 0-1.321-.59-1.321-1.32 0-.73.591-1.321 1.32-1.321.73 0 1.322.591 1.322 1.32M149.065 101.309L152.042 95.183 155.018 101.309z" mask="url(#cbg4y8ewkb)"/>
                            <path fill="#ED4F3E" d="M179.536 76.157h-.002c.896-1.134 1.433-2.565 1.433-4.124 0-3.675-2.979-6.655-6.652-6.655-2.506 0-4.687 1.386-5.822 3.433-1.134-2.047-3.315-3.433-5.821-3.433-3.674 0-6.653 2.98-6.653 6.655 0 1.678.622 3.21 1.646 4.38l10.551 13.23 11.113-13.238c.059-.068.116-.136.172-.206l.035-.042z" mask="url(#cbg4y8ewkb)"/>
                            <path fill="#3AB1CC" d="M15.384 96.764L21.56 96.764 21.56 65.536 15.384 65.536z" mask="url(#cbg4y8ewkb)"/>
                            <path fill="#64CDF2" d="M0 95.642L15.384 95.642 15.384 66.435 0 66.435z" mask="url(#cbg4y8ewkb)"/>
                            <path fill="#D8D8D8" d="M21.56 68.569s16.885-1.135 16.885-20.95c0 0-.131-4.191 4.057-4.191 4.19 0 4.19 4.19 4.19 4.19s.959 6.46-1.222 12.57h13.786s4.189 0 4.189 4.19-4.189 4.19-4.189 4.19 4.189 0 4.189 4.19-4.189 4.19-4.189 4.19 4.189 0 4.189 4.19c0 4.191-4.189 4.191-4.189 4.191s4.189 0 4.189 4.19-4.189 4.19-4.189 4.19H21.56V68.57z" mask="url(#cbg4y8ewkb)"/>
                            <path fill="#64CDF2" d="M153.839 35.554L172.367 35.554 172.367 17.019 153.839 17.019z" mask="url(#cbg4y8ewkb)"/>
                            <path fill="#30241C" d="M167.44 33.869L161.525 33.869 161.525 19.49 162.873 19.49 162.873 32.521 166.092 32.521 166.092 31.482 167.44 31.482z" mask="url(#cbg4y8ewkb)"/>
                            <path fill="#30241C" d="M159.44 25.494L164.673 25.494 164.673 24.146 159.44 24.146z" mask="url(#cbg4y8ewkb)"/>
                            <path fill="#3AB1CC" d="M39.583 132.328L65.634 132.328 65.634 106.268 39.583 106.268z" mask="url(#cbg4y8ewkb)"/>
                            <path fill="#30241C" d="M50.072 129.011L48.725 129.011 48.725 109.07 55.819 109.07 55.819 110.418 50.072 110.418z" mask="url(#cbg4y8ewkb)"/>
                            <path fill="#30241C" d="M49.782 122.192L52.609 122.192 52.609 120.844 49.782 120.844z" mask="url(#cbg4y8ewkb)"/>
                            <path fill="#D3DBDD" d="M167.146 54.594L177.926 54.594 177.926 43.81 167.146 43.81z" mask="url(#cbg4y8ewkb)"/>
                            <path fill="#30241C" d="M171.862 52.93L173.21 52.93 173.21 47.538 171.862 47.538zM171.862 46.359L173.21 46.359 173.21 45.474 171.862 45.474z" mask="url(#cbg4y8ewkb)"/>
                            <path fill="#ED4F3E" d="M29.056 49.202c0 5.972-4.84 10.812-10.809 10.812-5.969 0-10.808-4.84-10.808-10.812 0-5.972 4.84-10.812 10.808-10.812 5.97 0 10.809 4.84 10.809 10.812" mask="url(#cbg4y8ewkb)"/>
                            <path fill="#FFF" d="M14.671 53.605L13.718 52.652 21.567 44.8 22.52 45.753zM15.261 45.29c-.58 0-1.053.473-1.053 1.054 0 .58.473 1.053 1.053 1.053s1.053-.473 1.053-1.053c0-.581-.472-1.054-1.053-1.054m0 3.455c-1.323 0-2.4-1.077-2.4-2.401 0-1.325 1.077-2.402 2.4-2.402 1.324 0 2.4 1.077 2.4 2.402 0 1.324-1.076 2.4-2.4 2.4M20.976 51.008c-.58 0-1.052.472-1.052 1.053 0 .58.472 1.053 1.052 1.053.58 0 1.053-.473 1.053-1.053s-.472-1.053-1.053-1.053m0 3.454c-1.323 0-2.4-1.077-2.4-2.401 0-1.324 1.077-2.401 2.4-2.401 1.324 0 2.4 1.077 2.4 2.4 0 1.325-1.076 2.402-2.4 2.402" mask="url(#cbg4y8ewkb)"/>
                            <path fill="#30241C" d="M42.502 78.858L43.85 78.858 43.85 73.466 42.502 73.466zM42.502 100.742L43.85 100.742 43.85 95.35 42.502 95.35zM29.544 87.778L34.934 87.778 34.934 86.43 29.544 86.43zM51.419 87.778L56.809 87.778 56.809 86.43 51.419 86.43zM49.481 81.75L48.528 80.797 52.34 76.984 53.292 77.937zM34.013 97.224L33.06 96.271 36.871 92.458 37.824 93.411zM36.871 81.75L33.06 77.937 34.013 76.984 37.824 80.797zM52.34 97.224L48.528 93.411 49.481 92.458 53.292 96.271zM27.006 30.084h39.751V5.39h-39.75v24.694zm-1.347 1.348h42.446V4.042H25.659v27.39zM148.28 133.452H137.5c-1.164 0-3.368-.704-3.368-3.37 0-2.665 2.204-3.37 3.369-3.37h32.34c.334-.004 2.021-.119 2.021-2.022 0-1.902-1.687-2.018-2.025-2.022h-24.251c-1.165 0-3.369-.704-3.369-3.37 0-2.665 2.204-3.37 3.369-3.37h5.39c.334-.004 2.021-.12 2.021-2.022 0-.612-.16-1.064-.49-1.38-.576-.553-1.491-.53-1.503-.53h-10.785v-1.347h10.757c.034-.004 1.469-.05 2.463.904.601.576.906 1.368.906 2.353 0 2.666-2.204 3.37-3.37 3.37h-5.39c-.334.004-2.02.12-2.02 2.022 0 1.903 1.686 2.018 2.025 2.022h24.25c1.166 0 3.37.705 3.37 3.37 0 2.666-2.204 3.37-3.37 3.37H137.5c-.334.004-2.02.12-2.02 2.022 0 1.903 1.686 2.018 2.025 2.022h10.775v1.348z" mask="url(#cbg4y8ewkb)"/>
                            <path fill="#D8D8D8" d="M146.933 132.778c0 3.723 3.017 6.74 6.738 6.74h8.085c3.721 0 6.737-3.017 6.737-6.74 0-3.722-3.016-6.74-6.737-6.74h-8.085c-3.72 0-6.738 3.018-6.738 6.74" mask="url(#cbg4y8ewkb)"/>
                            <path fill="#BAC4C6" d="M146.933 133.452L153.671 133.452 153.671 132.104 146.933 132.104z" mask="url(#cbg4y8ewkb)"/>
                            <path fill="#FFF" d="M153.67 131.43c.745 0 1.348.604 1.348 1.348 0 .745-.603 1.348-1.347 1.348s-1.348-.603-1.348-1.348c0-.744.604-1.348 1.348-1.348" mask="url(#cbg4y8ewkb)"/>
                            <path fill="#30241C" d="M67.014 122.025l-.322-1.308c.475-.118.963-.203 1.45-.253l.138 1.341c-.425.044-.851.118-1.266.22zm5.076.182c-.406-.132-.825-.236-1.246-.31l.233-1.328c.484.085.965.205 1.43.357l-.417 1.281zm-8.519 1.495l-.829-1.063c.386-.301.797-.578 1.222-.823l.674 1.167c-.371.214-.73.456-1.067.719zm11.832.424c-.318-.286-.658-.553-1.012-.792l.755-1.117c.405.274.795.58 1.16.908l-.903 1.001zm-14.3 2.506l-1.187-.636c.23-.431.494-.85.783-1.247l1.088.795c-.252.346-.482.712-.683 1.088zm16.552.594c-.173-.39-.376-.77-.603-1.135l1.142-.714c.26.416.493.854.693 1.301l-1.232.548zm-17.612 3.086l-1.344-.096c.035-.49.104-.98.206-1.458l1.318.281c-.089.417-.15.845-.18 1.273zm19.753.702H78.45v-.04c0-.43-.03-.86-.088-1.283l1.334-.186c.067.484.101.978.101 1.47v.04zM59.3 134.568c-.167-.462-.302-.94-.403-1.42l1.32-.275c.087.418.205.834.35 1.236l-1.267.459zm19.57.741l-1.229-.553c.176-.39.326-.796.444-1.206l1.295.376c-.137.47-.308.935-.51 1.383zm-17.25 2.987c-.339-.353-.656-.733-.944-1.13l1.09-.791c.252.346.53.679.825.986l-.97.935zm14.656.555l-.899-1.005c.318-.284.62-.594.897-.921l1.028.87c-.317.375-.662.73-1.026 1.056zm-11.026 1.911c-.452-.184-.897-.403-1.32-.65l.677-1.165c.37.216.757.406 1.152.567l-.509 1.248zm7.217.274l-.412-1.283c.407-.131.808-.292 1.192-.478l.588 1.213c-.44.213-.9.398-1.368.548zm-3.232.504c-.38 0-.761-.02-1.134-.06l.142-1.34c.422.044.856.061 1.286.048l.042 1.347c-.111.004-.223.005-.336.005zM209.056 82.224l-.323-1.308c.475-.118.963-.203 1.452-.253l.137 1.341c-.426.044-.851.118-1.266.22zm5.075.182c-.406-.132-.825-.237-1.246-.31l.234-1.328c.482.085.963.205 1.43.356l-.418 1.282zm-8.518 1.495l-.829-1.063c.386-.301.797-.578 1.222-.824l.673 1.168c-.37.214-.729.456-1.066.719zm11.831.424c-.318-.287-.658-.553-1.011-.792l.755-1.117c.405.274.794.58 1.159.908l-.903 1.001zm-14.299 2.506l-1.188-.635c.23-.431.494-.85.783-1.248l1.088.796c-.252.346-.482.712-.683 1.087zm16.552.594c-.173-.39-.376-.772-.603-1.134l1.142-.715c.26.415.493.853.692 1.301l-1.23.548zm-17.612 3.085l-1.344-.094c.034-.489.103-.98.206-1.459l1.318.282c-.09.418-.15.846-.18 1.271zm18.405.703v-.057c0-.413-.03-.845-.088-1.265l1.335-.187c.067.482.101.976.101 1.47l-1.348.04zm-19.149 3.554c-.167-.461-.302-.939-.403-1.42l1.32-.276c.087.42.205.836.35 1.237l-1.267.459zm19.57.741l-1.229-.553c.176-.39.325-.795.444-1.206l1.294.376c-.136.471-.308.937-.51 1.383zm-17.25 2.986c-.34-.353-.658-.733-.945-1.13l1.092-.79c.25.346.527.678.824.986l-.971.934zm14.655.556l-.898-1.004c.319-.286.62-.596.896-.922l1.029.87c-.316.374-.662.73-1.027 1.056zm-11.024 1.911c-.453-.184-.898-.403-1.322-.65l.678-1.165c.37.216.757.406 1.152.567l-.508 1.248zm7.216.275l-.413-1.284c.408-.131.81-.292 1.194-.478l.587 1.213c-.44.214-.901.398-1.368.549zm-3.232.503c-.38 0-.761-.02-1.135-.06l.144-1.34c.422.045.859.061 1.284.048l.043 1.347c-.111.004-.223.005-.336.005zM186.642 10.597l-.323-1.308c.475-.118.963-.203 1.45-.253l.138 1.341c-.425.043-.85.118-1.265.22zm5.074.182c-.406-.132-.825-.237-1.245-.311l.233-1.327c.483.084.964.204 1.43.356l-.418 1.282zm-8.517 1.494l-.83-1.062c.387-.302.798-.579 1.222-.824l.673 1.168c-.37.214-.729.455-1.065.718zm11.83.425c-.317-.287-.658-.553-1.011-.793l.756-1.116c.404.274.794.58 1.158.908l-.902 1zm-14.298 2.506l-1.189-.635c.23-.431.494-.85.784-1.248l1.088.795c-.253.346-.483.712-.683 1.088zm16.552.594c-.174-.39-.377-.772-.604-1.135l1.143-.714c.26.415.492.853.692 1.3l-1.231.55zm-17.613 3.085l-1.344-.094c.034-.49.104-.98.206-1.46l1.318.282c-.09.418-.15.846-.18 1.272zm18.406.703v-.057c0-.414-.03-.845-.088-1.265l1.334-.187c.067.482.101.976.101 1.469l-1.347.04zm-19.15 3.554c-.166-.461-.302-.939-.403-1.42l1.32-.276c.087.42.205.835.35 1.236l-1.266.46zm19.57.741l-1.228-.554c.175-.388.324-.794.443-1.205l1.295.376c-.137.472-.309.937-.51 1.383zm-17.25 2.986c-.34-.354-.658-.734-.944-1.13l1.091-.79c.25.345.527.677.825.987l-.972.933zm14.656.556l-.9-1.005c.32-.286.622-.596.897-.922l1.03.87c-.316.374-.661.73-1.027 1.057zm-11.025 1.911c-.453-.185-.898-.403-1.321-.65l.677-1.165c.37.215.757.406 1.152.567l-.508 1.248zm7.216.274l-.412-1.283c.407-.13.808-.291 1.194-.478l.586 1.213c-.441.214-.902.399-1.368.548zm-3.231.504c-.38 0-.762-.02-1.135-.06l.143-1.34c.422.044.858.061 1.285.047l.043 1.348c-.112.003-.224.005-.336.005z" mask="url(#cbg4y8ewkb)"/>
                            <path fill="#64CDF2" d="M75.516 113.906c0-1.489-1.207-2.696-2.695-2.696-1.488 0-2.695 1.207-2.695 2.696 0 1.49 1.207 2.696 2.695 2.696 1.488 0 2.695-1.207 2.695-2.696M149.628 76.162c0-1.489-1.206-2.696-2.695-2.696-1.488 0-2.695 1.207-2.695 2.696s1.207 2.696 2.695 2.696c1.489 0 2.695-1.207 2.695-2.696" mask="url(#cbg4y8ewkb)"/>
                            <path fill="#ED4F3E" d="M31.049 128.734c0-.744-.604-1.348-1.348-1.348-.744 0-1.347.604-1.347 1.348 0 .745.603 1.348 1.347 1.348s1.348-.603 1.348-1.348" mask="url(#cbg4y8ewkb)"/>
                            <path fill="#30241C" d="M140.22 27.072h1.015v-1.348h-1.016v1.348zm3.71 0h1.348v-1.348h-1.348v1.348zm4.043 0h1.347v-1.348h-1.347v1.348zm4.042 0h1.348v-1.348h-1.348v1.348zM17.574 38.39L18.921 38.39 18.921 37.716 17.574 37.716zM17.574 22.822h1.347v-1.354h-1.347v1.354zm0 4.062h1.347v-1.355h-1.347v1.355zm0 4.062h1.347v-1.354h-1.347v1.354zm0 4.062h1.347v-1.354h-1.347v1.354zM17.574 18.76L18.921 18.76 18.921 17.412 17.574 17.412zM21.347 18.76L22.559 18.76 22.559 17.412 21.347 17.412zM24.985 18.76L25.659 18.76 25.659 17.412 24.985 17.412zM79.895 74.028L80.569 74.028 80.569 72.68 79.895 72.68zM77.672 74.028L78.413 74.028 78.413 72.68 77.672 72.68zM74.842 74.028L76.19 74.028 76.19 72.68 74.842 72.68zM74.842 59.087h1.348v-1.235h-1.348v1.235zm0 3.707h1.348V61.56h-1.348v1.235zm0 3.707h1.348v-1.235h-1.348V66.5zm0 3.707h1.348v-1.235h-1.348v1.235zM74.842 55.38L76.19 55.38 76.19 54.706 74.842 54.706zM172.536 133.452L173.21 133.452 173.21 132.104 172.536 132.104zM175.905 133.452h1.347v-1.348h-1.347v1.348zm4.042 0h1.347v-1.348h-1.347v1.348zm4.042 0h1.348v-1.348h-1.348v1.348zM188.032 133.452L189.379 133.452 189.379 132.104 188.032 132.104zM188.032 124.571h1.347v-1.506h-1.347v1.506zm0 4.52h1.347v-1.507h-1.347v1.507zM188.032 120.051L189.379 120.051 189.379 119.377 188.032 119.377z" mask="url(#cbg4y8ewkb)"/>
                        </g>
                    </g>
                </g>
            </g>
        </g>
    </g>
</svg>
